<?xml version="1.0" encoding="UTF-8"?>
<!DOCTYPE svg PUBLIC "-//W3C//DTD SVG 1.1//EN" "http://www.w3.org/Graphics/SVG/1.1/DTD/svg11.dtd">
<svg xmlns="http://www.w3.org/2000/svg" version="1.1" width="78px" height="30px" style="shape-rendering:geometricPrecision; text-rendering:geometricPrecision; image-rendering:optimizeQuality; fill-rule:evenodd; clip-rule:evenodd" xmlns:xlink="http://www.w3.org/1999/xlink">
<g><path style="opacity:0.931" fill="#394048" d="M 13.5,-0.5 C 16.5,-0.5 19.5,-0.5 22.5,-0.5C 24.6038,1.0987 26.6038,2.93204 28.5,5C 26.9825,6.68511 25.3159,8.18511 23.5,9.5C 21.8067,7.97325 19.9734,6.63992 18,5.5C 12.5,8.33333 8.33333,12.5 5.5,18C 7.84696,23.2042 11.1803,24.2042 15.5,21C 22.7285,13.6034 30.0618,6.43676 37.5,-0.5C 40.5,-0.5 43.5,-0.5 46.5,-0.5C 48.6038,1.0987 50.6038,2.93204 52.5,5C 51.1667,6.33333 49.8333,7.66667 48.5,9C 46.1959,8.42665 44.0292,7.25999 42,5.5C 40.5806,6.46014 39.0806,7.29347 37.5,8C 30.2715,15.3966 22.9382,22.5632 15.5,29.5C 12.5,29.5 9.5,29.5 6.5,29.5C 3.83333,27.5 1.5,25.1667 -0.5,22.5C -0.5,19.5 -0.5,16.5 -0.5,13.5C 3.83333,8.5 8.5,3.83333 13.5,-0.5 Z"/></g>
<g><path style="opacity:0.93" fill="#394048" d="M 61.5,-0.5 C 64.5,-0.5 67.5,-0.5 70.5,-0.5C 73.1667,1.5 75.5,3.83333 77.5,6.5C 77.5,9.5 77.5,12.5 77.5,15.5C 73.1667,20.5 68.5,25.1667 63.5,29.5C 60.5,29.5 57.5,29.5 54.5,29.5C 52.3962,27.9013 50.3962,26.068 48.5,24C 50.0175,22.3149 51.6841,20.8149 53.5,19.5C 55.1933,21.0267 57.0266,22.3601 59,23.5C 64.5,20.6667 68.6667,16.5 71.5,11C 69.153,5.79584 65.8197,4.79584 61.5,8C 54.2715,15.3966 46.9382,22.5632 39.5,29.5C 36.5,29.5 33.5,29.5 30.5,29.5C 28.3962,27.9013 26.3962,26.068 24.5,24C 25.8333,22.6667 27.1667,21.3333 28.5,20C 30.8041,20.5733 32.9708,21.74 35,23.5C 36.4194,22.5399 37.9194,21.7065 39.5,21C 46.7285,13.6034 54.0618,6.43676 61.5,-0.5 Z"/></g>
</svg>
